<svg width="164" height="135" viewBox="0 0 164 135" xmlns="http://www.w3.org/2000/svg"><title>logo-white</title><g fill="#FFF" fill-rule="evenodd"><path d="M2.607 96.046v-7.351c0-.582-.396-.752-1.974-.808v-.713h5.62v.713c-1.672.056-1.823.188-1.823.808v6.993c0 2.256 1.39 3.215 3.497 3.215 1.015 0 1.786-.357 2.35-.92.676-.678.92-1.336.92-2.746v-5.113c0-1.71-.376-2.03-2.162-2.292v-.658h4.851v.658c-1.673.3-1.823.582-1.823 2.292v5.809c0 1.992-1.693 3.91-4.72 3.91-2.97 0-4.736-1.542-4.736-3.797m15.451-6.674h-.075v7.087c0 1.73.207 2.161 2.012 2.426v.657h-4.831v-.657c1.673-.283 1.954-.753 1.954-2.482v-7.237c0-.697-.432-1.242-1.954-1.279v-.714h3.59l6.824 9.436h.075v-6.485c0-1.71-.376-2.03-2.161-2.293v-.658h4.85v.658c-1.674.301-1.824.582-1.824 2.293v9.72h-.846l-7.614-10.472zm11.693 9.456c1.579-.056 1.974-.226 1.974-.809v-9.324c0-.582-.395-.751-1.974-.807v-.715h5.772v.715c-1.58.056-1.974.225-1.974.807v9.324c0 .583.394.753 1.974.809v.714H29.75v-.714zm9.08-9.662c-.3-.791-.602-1.054-1.993-1.335v-.66h5.546v.66c-1.635.095-1.917.43-1.654 1.184l2.95 8.384h.095l2.726-7.162c.676-1.804.47-2.142-1.298-2.406v-.66h4.493v.66c-1.221.245-1.56.771-2.199 2.387L43.7 99.843h-.94l-3.93-10.677zm11.786 9.662c1.578-.056 1.974-.226 1.974-.809v-9.324c0-.582-.396-.751-1.974-.807v-.715h10.095l.056 3.59-.658.02c-.658-2.107-.978-2.802-3.084-2.802h-2.612v4.738h1.034c1.392 0 1.88-.095 2.35-2.05h.583v4.963h-.583c-.47-1.955-.958-2.087-2.35-2.087h-1.034v5.17h2.612c2.482 0 3.065-.996 3.723-3.176l.658.018-.094 3.985H50.617v-.714zm15.809-.808c0 .62.283.751 1.956.807v.715h-5.753v-.715c1.58-.056 1.974-.225 1.974-.807v-9.324c0-.582-.395-.754-1.974-.809v-.714h5.226c3.76 0 4.925 1.447 4.925 3.008 0 1.504-.865 2.612-3.196 3.1v.096c2.275.187 2.595 1.07 2.82 2.442l.283 1.693c.169 1.09.582 1.371 1.879 1.467v.675c-.132 0-.489.02-.62.02-2.651 0-3.12-.64-3.233-2.256l-.114-1.43c-.15-1.747-.901-2.237-2.838-2.237h-1.335v4.269zm1.392-5.056c2.368 0 2.97-1.053 2.97-2.707 0-1.542-.808-2.276-3.064-2.276h-1.298v4.983h1.392zm7.838 2.931h.658c.996 2.162 2.236 3.139 3.797 3.139 1.824 0 2.537-1.202 2.537-2.254 0-1.355-.94-1.881-3.214-2.688-1.71-.604-3.553-1.128-3.553-3.442 0-2.348 1.88-3.778 4.211-3.778 1.053 0 1.748.227 2.35.45l.62-.544h.49v3.628h-.66c-.62-1.729-1.653-2.725-3.12-2.725-1.24 0-2.198.807-2.198 2.162 0 1.277 1.015 1.766 3.026 2.443 1.71.583 3.534 1.165 3.534 3.497 0 1.86-1.127 4.06-4.248 4.06a7.41 7.41 0 0 1-2.745-.546l-.96.621h-.525v-4.023zm10.188 2.933c1.58-.056 1.974-.226 1.974-.809v-9.324c0-.582-.394-.751-1.974-.807v-.715h5.772v.715c-1.58.056-1.974.225-1.974.807v9.324c0 .583.394.753 1.974.809v.714h-5.772v-.714zm9.7 0c1.673-.056 2.105-.226 2.105-.809V87.962h-.883c-1.805 0-2.162.922-2.913 3.159l-.64-.038.132-3.91h10.452l.131 3.929-.638.037c-.62-2.104-1.054-3.177-2.914-3.177h-.902V98.02c0 .583.431.753 2.104.809v.714h-6.034v-.714zm18.084-8.93c.828-1.448.809-1.84-.79-2.067v-.657h4.306v.657c-1.071.206-1.523.45-2.369 1.88l-2.764 4.548v3.76c0 .583.359.752 1.937.809v.714h-5.696v-.714c1.579-.057 1.936-.226 1.936-.809v-3.61l-3.14-5.432c-.431-.713-.714-.92-1.86-1.146v-.657h5.358v.657c-1.673.112-1.806.508-1.41 1.221l2.444 4.324 2.048-3.478zM1.122 110.932c0-3.965 2.65-6.523 5.92-6.523 3.366 0 5.923 2.482 5.923 6.447 0 3.987-2.651 6.524-5.922 6.524-3.365 0-5.921-2.463-5.921-6.448m9.775-.036c0-3.93-1.654-5.68-3.929-5.68-2.274 0-3.779 1.75-3.779 5.68 0 3.947 1.654 5.676 3.93 5.676 2.274 0 3.778-1.73 3.778-5.676m2.988 5.468c1.58-.056 1.974-.225 1.974-.807v-9.325c0-.581-.394-.752-1.974-.807v-.716h10.038l.132 3.686-.638.017c-.64-2.124-1.204-2.894-3.31-2.894h-2.424v4.908h1.165c1.392 0 1.692-.189 2.2-2.051h.564v4.963h-.565c-.47-1.954-.807-2.086-2.199-2.086h-1.165v4.305c0 .62.414.751 2.087.807v.714h-5.885v-.714zm24.118-9.493c-.3-.959-.639-1.297-1.86-1.503v-.657h5.112v.657c-1.447.113-1.673.49-1.484 1.146l2.481 7.934h.094l2.199-6.672c.62-1.881.507-2.144-1.259-2.408v-.657h4.549v.657c-1.279.264-1.786.77-2.331 2.388l-3.196 9.623h-.94l-2.65-8.27-3.14 8.27h-.94l-3.27-10.677c-.244-.844-.583-1.05-1.955-1.334v-.657h5.17v.657c-1.373.113-1.524.45-1.316 1.184l2.31 7.913h.095l2.594-6.747-.263-.847zm10.038 4.061c0-3.965 2.65-6.523 5.92-6.523 3.367 0 5.923 2.482 5.923 6.447 0 3.987-2.65 6.524-5.922 6.524-3.365 0-5.921-2.463-5.921-6.448m9.775-.036c0-3.93-1.654-5.68-3.929-5.68-2.274 0-3.779 1.75-3.779 5.68 0 3.947 1.655 5.676 3.93 5.676 2.275 0 3.778-1.73 3.778-5.676m3.177 5.468c1.58-.056 1.974-.225 1.974-.807v-9.325c0-.581-.395-.752-1.974-.807v-.716h5.771v.716c-1.58.055-1.974.226-1.974.807v10.003h1.956c2.481 0 3.063-.885 3.778-3.443l.657.038-.13 4.248H60.993v-.714zm11.748 0c1.579-.056 1.974-.225 1.974-.807v-9.325c0-.581-.395-.752-1.974-.807v-.716h5.772v.716c-1.58.055-1.974.226-1.974.807v10.003h1.955c2.482 0 3.064-.885 3.778-3.443l.658.038-.13 4.248H72.74v-.714zm11.58-5.432c0-3.965 2.65-6.523 5.921-6.523 3.366 0 5.922 2.482 5.922 6.447 0 3.987-2.65 6.524-5.922 6.524-3.365 0-5.92-2.463-5.92-6.448m9.775-.036c0-3.93-1.655-5.68-3.93-5.68-2.275 0-3.778 1.75-3.778 5.68 0 3.947 1.654 5.676 3.929 5.676s3.779-1.73 3.779-5.676m5.789-3.986h-.075v7.085c0 1.73.206 2.163 2.012 2.426v.66h-4.832v-.66c1.673-.283 1.955-.753 1.955-2.482v-7.236c0-.697-.431-1.242-1.955-1.278v-.715h3.59l6.825 9.436h.074v-6.486c0-1.71-.375-2.027-2.162-2.29v-.66h4.851v.66c-1.673.299-1.823.58-1.823 2.29v9.72h-.846l-7.614-10.47zm10.847 4.022c0-3.87 2.97-6.523 6.428-6.523 1.148 0 2.313.321 2.97.62l.509-.62h.658v3.742h-.64c-.77-1.994-1.973-2.934-3.684-2.934-2.068 0-4.174 1.844-4.174 5.679 0 3.814 2.275 5.676 4.323 5.676 1.147 0 1.956-.225 2.5-.601v-3.291c0-.582-.431-.75-2.01-.808v-.714h5.094v.714c-1.147.058-1.26.187-1.26.808v3.704c-1.127.6-2.894.996-4.172.996-3.479 0-6.542-2.18-6.542-6.448m13.572 0c0-3.965 2.65-6.523 5.92-6.523 3.367 0 5.923 2.482 5.923 6.447 0 3.987-2.65 6.524-5.922 6.524-3.365 0-5.921-2.463-5.921-6.448m9.775-.036c0-3.93-1.654-5.68-3.929-5.68-2.274 0-3.779 1.75-3.779 5.68 0 3.947 1.655 5.676 3.93 5.676 2.273 0 3.778-1.73 3.778-5.676m5.883-3.986h-.076v7.085c0 1.73.208 2.163 2.013 2.426v.66h-4.831v-.66c1.673-.283 1.954-.753 1.954-2.482v-7.236c0-.697-.432-1.242-1.954-1.278v-.715h3.59l6.823 9.436h.076v-6.486c0-1.71-.377-2.027-2.162-2.29v-.66h4.85v.66c-1.673.299-1.823.58-1.823 2.29v9.72h-.846l-7.614-10.47zm11.167 4.022c0-3.87 2.97-6.523 6.428-6.523 1.147 0 2.313.321 2.97.62l.508-.62h.66v3.742h-.641c-.77-1.994-1.973-2.934-3.683-2.934-2.069 0-4.175 1.844-4.175 5.679 0 3.814 2.275 5.676 4.324 5.676 1.147 0 1.955-.225 2.5-.601v-3.291c0-.582-.432-.75-2.011-.808v-.714h5.095v.714c-1.147.058-1.26.187-1.26.808v3.704c-1.129.6-2.895.996-4.174.996-3.477 0-6.541-2.18-6.541-6.448M8.04 130.048H3.83l-.697 1.767c-.62 1.579-.62 1.881 1.015 2.145v.655H.032v-.655c1.278-.264 1.635-.96 2.255-2.502l3.76-9.38h1.015l3.741 10.357c.357.978.714 1.336 2.105 1.525v.655H7.344v-.655c1.635-.096 1.898-.47 1.56-1.43l-.864-2.482zm-.301-.827l-1.655-4.813h-.093l-1.862 4.813h3.61zm5.996 1.899v-7.35c0-.583-.395-.753-1.974-.81v-.713h5.621v.714c-1.673.056-1.823.189-1.823.808v6.993c0 2.255 1.39 3.216 3.496 3.216 1.015 0 1.786-.357 2.35-.92.677-.679.92-1.338.92-2.746v-5.115c0-1.71-.375-2.03-2.161-2.29v-.66h4.85v.66c-1.672.299-1.823.58-1.823 2.29v5.81c0 1.993-1.693 3.91-4.72 3.91-2.97 0-4.736-1.543-4.736-3.797m12.012-.15h.658c.996 2.16 2.236 3.138 3.797 3.138 1.824 0 2.538-1.201 2.538-2.254 0-1.356-.94-1.882-3.214-2.688-1.712-.603-3.554-1.128-3.554-3.443 0-2.347 1.88-3.777 4.212-3.777 1.052 0 1.747.227 2.35.45l.619-.544h.489v3.629h-.658c-.62-1.73-1.655-2.726-3.12-2.726-1.241 0-2.199.808-2.199 2.162 0 1.276 1.014 1.767 3.026 2.443 1.71.582 3.534 1.164 3.534 3.497 0 1.86-1.128 4.06-4.249 4.06a7.383 7.383 0 0 1-2.744-.546l-.959.62h-.526v-4.021zm12.275 2.932c1.673-.056 2.106-.226 2.106-.808v-10.057h-.884c-1.804 0-2.162.92-2.914 3.158l-.639-.038.132-3.91h10.452l.132 3.93-.64.036c-.62-2.104-1.053-3.176-2.914-3.176h-.902v10.057c0 .582.432.752 2.105.808v.713h-6.034v-.713zm13.61-.809c0 .62.282.751 1.955.809v.715h-5.753v-.715c1.58-.058 1.974-.226 1.974-.809v-9.323c0-.583-.394-.753-1.974-.81v-.713h5.227c3.759 0 4.924 1.448 4.924 3.007 0 1.504-.864 2.614-3.195 3.101v.096c2.275.187 2.594 1.071 2.82 2.443l.282 1.693c.168 1.09.582 1.372 1.88 1.465v.677c-.132 0-.49.018-.621.018-2.65 0-3.12-.639-3.233-2.255l-.113-1.43c-.15-1.746-.902-2.237-2.839-2.237h-1.334v4.268zm1.39-5.055c2.369 0 2.972-1.052 2.972-2.707 0-1.542-.81-2.276-3.065-2.276h-1.297v4.983h1.39zm15.415 2.01h-4.21l-.696 1.767c-.62 1.579-.62 1.881 1.015 2.145v.655H60.43v-.655c1.279-.264 1.636-.96 2.257-2.502l3.759-9.38h1.014l3.742 10.357c.357.978.714 1.336 2.105 1.525v.655h-5.564v-.655c1.636-.096 1.898-.47 1.56-1.43l-.865-2.482zm-.3-.827l-1.655-4.813h-.093l-1.861 4.813h3.608zm5.996 4.681c1.578-.056 1.974-.226 1.974-.808v-9.324c0-.582-.396-.752-1.974-.808v-.715h5.771v.715c-1.58.056-1.974.226-1.974.808v10.002h1.956c2.481 0 3.063-.885 3.777-3.442l.658.037-.13 4.248H74.133v-.713zm11.279 0c1.58-.056 1.974-.226 1.974-.808v-9.324c0-.582-.394-.752-1.974-.808v-.715h5.771v.715c-1.58.056-1.974.226-1.974.808v9.324c0 .582.395.752 1.974.808v.713h-5.771v-.713zm15.114-3.854h-4.21l-.697 1.767c-.62 1.579-.62 1.881 1.016 2.145v.655h-4.117v-.655c1.279-.264 1.636-.96 2.255-2.502l3.76-9.38h1.015l3.742 10.357c.357.978.714 1.336 2.104 1.525v.655h-5.563v-.655c1.635-.096 1.898-.47 1.56-1.43l-.865-2.482zm-.301-.827l-1.654-4.813h-.094l-1.862 4.813h3.61zM45.668 17.903c.452.515.723.594 1.039 1.144.242.422.612.464.605.4-.024-.218-.013-.8-.54-1.49-.53-.691-1.376-.879-1.376-.879s.108.638.272.825m-1.56-.859c-.506-.14-1.52-.525-1.942-1.544-.102-.246-.135-.409-.17-.415-.035-.006-.11.293-.112.427-.009.347-.013.891.5 1.381.42.405.793.44 1.327.43.382-.008.693-.12.707-.15.023-.05-.131-.08-.31-.129m-1.355-4.137s-.173-.859-.656-1.52c-.484-.66-1.069-.772-1.248-.897-.148-.106-.096.464.29.894.387.43.465.579.627.952.194.447.96.633.987.57m1.813 1.656c-.605-.493-1.354-.582-1.673-.191-.318.387-.086 1.103.519 1.6.605.496 1.353.584 1.672.193.32-.388.087-1.105-.518-1.602m1.894-3.931c-.03-.111-.098-.104-.108.025-.046.579-.478 1.084-.71 1.539-.295.578-.127 1.207-.127 1.207.029.048.494-.34.775-.74.574-.813.25-1.732.17-2.03m1.026 3.458c-.262.087-.554.247-.592.338.457.001.98.305 1.549.463.598.194 1.184.229 1.18.07 0 0-.223-.22-.574-.548-.492-.461-1.3-.412-1.563-.323M27.7 11.088c.048-.236-.097-1.014-.32-1.407-.177-.308-.592-.76-1.056-.926-.488-.174-.821-.16-.972-.138-.153.02-.103.012.014.084.688.424 1.066 1.335 1.434 1.861.257.367.883.613.9.526m-.269 2.527c0 .564.576 1.021 1.293 1.037v-.001h.008v.001c.718-.016 1.294-.473 1.294-1.037 0-.565-.576-1.023-1.294-1.038v.002h-.008v-.002c-.717.015-1.293.473-1.293 1.038m3.259 1.422s-.45.692-1.858.758c-.008.001-.013-.001-.02-.001l-.055-.002-.005-.001-.002.001h-.007v-.001h-.003l-.002.001-.055.002c-.007 0-.012.002-.02 0-1.408-.065-1.795-.757-1.795-.757-.3.13.264 1.571 1.848 1.581l.04.003h.046c.015 0 .028-.002.043-.003 1.583-.01 2.148-1.451 1.847-1.58m-7.326-2.295c-.286.13-.71.4-.996.53-.336.153-.511.153-.718.217-.055.016-.029.082.037.1.446.113 1.002.39 2.103-.013.45-.165.855-.507 1.118-.528.105-.008.165-.101.07-.156-.272-.153-.89-.48-1.614-.15m8.738-4.127c-.13-.003-.504-.035-.99.14-.465.164-.88.618-1.057.926-.223.392-.349 1.17-.301 1.407.018.087.553.013.814-.35.351-.492.666-1.456 1.52-2.037.13-.048.168-.082.014-.086m2.983 4.656c-.286-.129-.71-.398-.996-.53-.724-.327-1.343-.002-1.613.152-.096.054-.077.136.028.143.263.018.657.37 1.11.526 1.446.502 1.815.074 2.11.013.068-.015.134-.07.08-.086-.207-.066-.383-.066-.719-.218m-23.136.129s.167-.628-.127-1.206c-.231-.456-.664-.96-.71-1.54-.01-.128-.08-.135-.108-.024-.079.3-.403 1.219.17 2.031.281.4.746.789.775.74m2.621.968c-.319-.389-1.068-.302-1.673.192-.605.498-.836 1.215-.518 1.603.319.39 1.067.303 1.672-.194.606-.495.838-1.214.519-1.602m-3.877 3.587c-.529.692-.518 1.273-.541 1.492-.006.063.362.02.604-.4.318-.55.589-.63 1.04-1.145.164-.186.273-.825.273-.825s-.849.188-1.376.878"/><path d="M29.745 5.037c-.46 0-.782.006-.938.01a2.384 2.384 0 0 1-.268 0 39.51 39.51 0 0 0-.938-.01c-3.187 0-14.075.276-22.833 3.769v13.942a17.65 17.65 0 0 1 3.419-.336h.057c2.142.006 3.948.483 5.694.945l.013.003c1.547.41 3.011.793 4.468.747 1.8-.058 3.388-.475 4.923-.878 1.717-.451 3.338-.875 5.265-.875l.14-.002c2.565 0 4.478.549 6.168 1.034l.018.005c1.424.41 2.652.762 4.013.716 1.777-.057 3.245-.493 4.666-.915 1.57-.465 3.19-.947 5.249-.965h.044c1.386 0 2.603.198 3.671.448V8.805c-8.76-3.492-19.645-3.768-22.83-3.768M17.626 19.5c-.416-.19-.568-.15-1.444-.189-1.452-.066-2.06-.947-2.13-1.14-.07-.193-.194-.235-.351.123-.123.28-.148 1.124-.773 1.6-.981.75-2.068.445-2.577.506-.327.04-.532.204-.667.07-.28-.28.071-.631.069-1.033-.008-1.012.398-1.925 1.23-2.424.44-.263.311-.543-.206-.329-.425.177-1.427.296-2.037-.032-1.054-.566-1.013-.999-1.475-1.233-.385-.195-.281-.573 0-.648.455-.123 1.036-.99 1.948-1.193.912-.201 1.35.25 1.656.371.131.052.265-.118.273-.15.041-.153-.164-.288-.23-.396-1.1-1.432-.153-2.724-.179-3.363-.025-.606.345-.573.6-.354.33.284.868.396 1.36.68.556.322 1.073 1.275 1.048 1.992-.01.224 0 .581.206.534.297-.067.198-.586.367-1.085.504-1.478 2.085-1.397 2.464-1.847.153-.183.426-.251.59-.143.232.15.003.496.209 1.042.69 1.845-.405 3.576-1.447 4.076-.282.135-.316.303 0 .395.87.254 1.479 1.201 1.605 1.667.368 1.369.01 1.572.382 2.016.335.405-.078.675-.49.487m5.982 1.391c-1.37-1.345-3.806-2.535-4.135-2.45-.236.06-.665.077-.658-.025.052-.974-.193-2.447-1.246-3.157-.245-.14-.115-.253.042-.368.379-.281.465-.538.518-.536.427.01.98.563 1.424 1.552.288.64.272.854.983 1.442.713.587 2.075 1.202 3.18 2.905.35.539.028.756-.108.637m8.176-4.745c-.474-.123-.552.042-.573.1-.11.303.8 1.338-.482 2.788-.646.733-1.343 1.03-1.572 1.47-.133.253-.142.388-.38.417v.002a.454.454 0 0 1-.04.003h-.019a.273.273 0 0 1-.041-.003v-.002c-.238-.029-.246-.164-.38-.417-.23-.44-.926-.737-1.573-1.47-1.281-1.45-.37-2.485-.48-2.787-.021-.059-.1-.224-.574-.101-.888.178-2.347.307-3.32-.836-.655-.769-.641-1.197-1.184-1.387-.463-.163-.483-.618.017-.744.354-.088.502-.302.716-.454.518-.364 1.458-1.194 2.693-.746.28.102.552.237.692.281.192.06.256-.336-.168-.7-1.101-1.024-1.203-1.973-1.099-3.07.053-.556-.191-.837.105-.953.336-.132.4.225 1.317.271 1.841.093 2.8 1.016 3.109 2.752.065.367.038.574.121.641a.116.116 0 0 0 .054.023v-.004l.005.001h.004v.003a.121.121 0 0 0 .054-.023c.082-.067.056-.274.121-.641.308-1.736 1.267-2.659 3.108-2.752.917-.046.983-.403 1.318-.271.297.116.053.397.105.953.104 1.097.002 2.046-1.098 3.07-.424.364-.362.76-.168.7.14-.044.41-.18.69-.281 1.237-.448 2.176.382 2.693.746.214.152.362.366.718.454.5.126.479.581.016.744-.542.19-.528.618-1.184 1.387-.974 1.143-2.433 1.014-3.32.836m6.864 2.27c.005.102-.423.086-.658.026-.33-.086-2.766 1.104-4.136 2.45-.136.118-.459-.1-.108-.638 1.104-1.703 2.468-2.318 3.18-2.905.712-.588.694-.801.983-1.442.444-.989.996-1.542 1.423-1.552.055-.002.14.255.52.536.155.115.286.227.04.368-1.051.71-1.298 2.183-1.244 3.157M50.2 15.42c-.462.234-.42.667-1.475 1.233-.61.328-1.612.209-2.037.032-.518-.214-.645.066-.206.329.833.499 1.238 1.412 1.23 2.424-.002.402.349.753.068 1.034-.133.133-.339-.031-.666-.071-.508-.061-1.597.244-2.577-.505-.624-.477-.65-1.321-.774-1.601-.156-.358-.28-.316-.35-.123-.07.193-.678 1.074-2.131 1.14-.875.039-1.026 0-1.444.19-.412.187-.826-.083-.49-.488.37-.444.015-.647.383-2.016.124-.466.734-1.413 1.604-1.667.315-.092.281-.26 0-.395-1.042-.5-2.137-2.231-1.446-4.076.205-.546-.024-.891.207-1.042.165-.108.437-.04.591.143.38.45 1.96.37 2.463 1.847.17.499.071 1.018.368 1.085.207.047.214-.31.207-.534-.026-.717.49-1.67 1.047-1.992.491-.284 1.031-.396 1.36-.68.255-.219.624-.252.6.354-.027.639.92 1.931-.18 3.363-.066.108-.27.243-.23.396.009.032.143.202.274.15.306-.122.745-.572 1.656-.37.912.202 1.493 1.07 1.948 1.192.28.075.386.453 0 .648"/><path d="M9.98 14.09c-.263-.089-1.071-.138-1.563.323-.35.329-.574.547-.574.547-.004.16.582.125 1.18-.07.568-.157 1.092-.46 1.547-.462-.036-.09-.328-.251-.59-.338m6.637-3.602c-.179.128-.764.239-1.247.9-.484.659-.657 1.518-.657 1.518.027.062.792-.122.987-.57.162-.371.24-.523.626-.952.387-.43.44-1 .291-.896m-1.147 4.597c-.035.006-.068.169-.17.415-.42 1.019-1.436 1.403-1.942 1.544-.18.05-.332.082-.31.132.014.027.325.139.708.146.532.013.905-.026 1.327-.429.511-.489.509-1.035.5-1.382-.004-.133-.078-.433-.113-.426"/><path d="M28.672 2.553C27.57 2.519 13.576 2.2 2.719 6.958l-.445.196v36.599c0 4.772.782 10.014 6.451 15.995 4.503 4.749 14.445 10.14 19.655 12.422l.3.132.3-.132c5.21-2.29 15.15-7.688 19.638-12.422 5.671-5.98 6.454-11.223 6.454-15.995v-36.6l-.447-.195C43.769 2.201 29.773 2.52 28.672 2.553zm24.91 41.2c0 4.464-.732 9.369-6.043 14.97-4.255 4.489-13.684 9.64-18.86 11.952-9.467-4.193-16.588-9.54-18.873-11.951-5.312-5.602-6.044-10.507-6.044-14.971V8.13c10.259-4.322 23.606-4.12 24.822-4.091a.692.692 0 0 0 .088.002c.031.002.06 0 .088-.002 1.217-.029 14.565-.231 24.823 4.091v35.623z"/><path d="M29.957 1.53c4.447 0 15.792.44 25.072 4.506l1.05.46v37.258c0 4.98-.817 10.45-6.73 16.687-4.59 4.841-14.681 10.33-19.965 12.65l-.703.313-.707-.313C22.695 70.78 12.602 65.3 7.996 60.441c-5.914-6.238-6.73-11.707-6.73-16.687V6.495l1.05-.459C11.596 1.97 22.938 1.53 27.384 1.53c.655 0 1.1.01 1.288.016.188-.006.63-.016 1.285-.016m0-.72c-.662 0-1.106-.002-1.285.003-.179-.005-.624-.002-1.288-.002-4.49 0-15.952.445-25.357 4.566L.98 5.836l-.432.188v37.73c0 5.13.84 10.762 6.926 17.181 4.68 4.936 14.882 10.48 20.213 12.817l.705.31.29.128.29-.128.704-.311c5.332-2.345 15.533-7.898 20.195-12.815 6.087-6.42 6.927-12.053 6.927-17.182V6.024l-.432-.188-1.047-.46C45.912 1.257 34.448.812 29.958.812"/><path d="M44.148 30.722v20.184l.591.733V31.485l.642.831.006 20.236H32.033c-.637.079-.87.46-1.134.617a.229.229 0 0 1-.071.029c-.422.302-1.088.597-2.093.597-1.223 0-1.956-.373-2.351-.714-.24-.2-.518-.504-1.152-.529h-.21a1.982 1.982 0 0 1-.122 0H12.444l-.034-20.355.608-.732V51.64l.591-.733v-20.15l.081-.098h-2.06v22.847h13.116c.288.014.592.039.993.321.477.44 1.52 1.162 3.165 1.082 1.407-.066 2.26-.632 2.693-1.03.517-.401.874-.37 1.231-.393h13.377V30.658H44.1l.048.064zm3.916 16.696h-1.236v.985h2.208l-.962.833h-.01v1.095h1.76v-4.048h-1.76v1.135zm0-15.356v1.135h-1.236v.985h2.208l-.962.833h-.01v1.095h1.76v-4.048h-1.76zm-4.575-2.188l-.59-.733v20.207l.59.735V29.874zm4.575 10.434h-1.236v.985h2.208l-.962.833h-.01v1.095h1.76v-4.046h-1.76v1.133zM14.86 29.14l-.59.733v20.21l.59-.736V29.141zm6.6 19.745c3.861-1.237 5.65-.193 6.562.451v-1.51c-.382-.417-1.122-1.014-2.074-1.216l-.027-.005a2.742 2.742 0 0 0-.559-.071c-.038-.002-.037-.016-.017-.02.169-.039.373-.064.604-.064.347 0 .67.056.793.079.588.143.999.297 1.28.482v-1.27c-.565-.585-1.703-1.117-2.065-1.179l-.026-.007a2.764 2.764 0 0 0-.596-.082c-.027-.002-.006-.012.012-.017.162-.034.354-.057.57-.057.328 0 .636.05.838.089.579.149.987.304 1.267.485V43.79a4.55 4.55 0 0 0-2.068-1.293l-.027-.006a2.964 2.964 0 0 0-.586-.094c-.024-.002-.017-.01.004-.015.154-.03.33-.05.53-.05.342 0 .664.058.877.102.582.158.99.317 1.27.497v-1.23c-.497-.574-1.224-1.026-2.065-1.27l-.028-.007a2.917 2.917 0 0 0-.592-.103c-.02-.002-.018-.01 0-.013.148-.026.315-.046.502-.046.395 0 .775.081.918.113.578.166.985.327 1.265.512v-1.2c-.713-.77-1.737-1.201-2.065-1.324l-.028-.008a2.827 2.827 0 0 0-.536-.1 1.653 1.653 0 0 1-.06-.007c-.018-.002-.01-.012.007-.016.133-.023.288-.04.463-.04.405 0 .816.094.95.122.58.173.986.344 1.269.53v-1.23c-.294-.343-.905-.915-1.966-1.287l-.13-.041c-.265-.08-.463-.101-.57-.115-.041-.005-.034-.017-.012-.021.123-.017.263-.032.419-.032.425 0 .85.104.99.136.578.183.986.357 1.269.551v-1.233c-.29-.342-.898-.912-2.012-1.329l-.094-.031a3.248 3.248 0 0 0-.566-.126c-.031-.005-.024-.016.004-.02.111-.013.236-.024.373-.024.434 0 .863.11 1.023.151.574.186.984.372 1.272.576v-1.237c-.315-.378-.97-1.013-2.066-1.385l-.028-.007c-.26-.086-.461-.115-.57-.132a.073.073 0 0 0-.016-.003c-.03-.005-.02-.014-.002-.017a2.82 2.82 0 0 1 .362-.025c.441 0 .904.125 1.057.166.632.215 1.015.416 1.263.592v-1.238c-.311-.38-.95-1.003-2.063-1.41l-.028-.01a3.435 3.435 0 0 0-.599-.147c-.02-.003-.016-.01.003-.013a3.4 3.4 0 0 1 .338-.02c.452 0 .932.135 1.09.18.552.195.964.398 1.259.619v-1.291c-.432-.46-1.634-1.443-3.9-1.238-2.867.261-6.126 1.918-8.568.692v20.147c.435.364 2.887.858 5.906-.107zm-4.937-18.223l.022-.004.063.02c.226.082.736.224 1.597.224.396 0 .825-.03 1.276-.09.137-.012.495-.047.844-.126a.03.03 0 0 1 .025.01c.004.007-.482.566-2.12.639l-.068.001a2.68 2.68 0 0 1-.156-.005l-.056-.002c-.43-.015-.485-.023-.793-.082-.57-.11-.641-.558-.641-.563a.026.026 0 0 1 .007-.022zm0 2.08l.022-.006.063.02c.226.082.736.222 1.597.222.396 0 .825-.028 1.276-.088.137-.011.495-.046.844-.126.013 0 .02.004.025.009.004.009-.482.566-2.12.64-.022.002-.046.002-.068.002-.053 0-.104-.003-.156-.005l-.056-.003c-.43-.017-.485-.023-.793-.083-.57-.108-.641-.557-.641-.562a.02.02 0 0 1 .007-.02zm0 2.078l.022-.005.063.019c.226.083.736.223 1.597.223.396 0 .825-.029 1.276-.087.137-.013.495-.048.844-.129.013 0 .02.004.025.01.004.01-.482.565-2.12.641l-.068.001a2.68 2.68 0 0 1-.156-.005l-.056-.002c-.43-.018-.485-.024-.793-.084-.57-.109-.641-.558-.641-.562a.02.02 0 0 1 .007-.02zm0 2.078l.022-.004.063.018c.226.084.736.223 1.597.223.396 0 .825-.03 1.276-.088a6.3 6.3 0 0 0 .844-.128c.013 0 .02.003.025.01.004.01-.482.566-2.12.64a1.257 1.257 0 0 1-.068.003c-.053 0-.104-.003-.156-.005l-.056-.003a4.018 4.018 0 0 1-.793-.083c-.57-.11-.641-.559-.641-.564a.02.02 0 0 1 .007-.02zm0 2.078l.022-.005.063.017c.226.085.736.224 1.597.224a9.89 9.89 0 0 0 1.276-.087c.137-.01.495-.046.844-.128.013 0 .02.004.025.013.004.007-.482.563-2.12.638h-.068c-.053 0-.104 0-.156-.003l-.056-.002c-.43-.019-.485-.026-.793-.085-.57-.108-.641-.558-.641-.563a.019.019 0 0 1 .007-.019zm0 2.077l.022-.003.063.017c.226.085.736.225 1.597.225.396 0 .825-.03 1.276-.09.137-.01.495-.045.844-.128.013 0 .02.005.025.013.004.009-.482.563-2.12.64h-.068a2.68 2.68 0 0 1-.156-.005l-.056-.002a3.826 3.826 0 0 1-.793-.085c-.57-.108-.641-.557-.641-.562a.023.023 0 0 1 .007-.02zm0 2.079l.022-.005.063.018c.226.085.736.226 1.597.226.396 0 .825-.03 1.276-.09.137-.011.495-.046.844-.128.013 0 .02.005.025.012.004.008-.482.565-2.12.64h-.068c-.053 0-.104-.002-.156-.004l-.056-.003a3.826 3.826 0 0 1-.793-.084c-.57-.11-.641-.557-.641-.562-.001-.008.001-.017.007-.02zm0 2.077l.022-.004.063.018c.226.084.736.225 1.597.225.396 0 .825-.031 1.276-.089.137-.01.495-.048.844-.126.013 0 .02.003.025.01.004.008-.482.566-2.12.638h-.068c-.053 0-.104 0-.156-.002l-.056-.002c-.43-.017-.485-.025-.793-.086-.57-.108-.641-.556-.641-.56-.001-.01.001-.017.007-.022zm-.007 2.1a.023.023 0 0 1 .007-.022l.022-.004.063.02c.226.081.736.223 1.597.223.396 0 .825-.03 1.276-.09.137-.01.495-.047.844-.126a.03.03 0 0 1 .025.011c.004.009-.482.565-2.12.638l-.068.001a2.68 2.68 0 0 1-.156-.005l-.056-.002c-.43-.015-.485-.022-.793-.083-.57-.109-.641-.556-.641-.561zm-6.642-.902c-.052-.525-.609-.877-1.095-.877-.28 0-.526.11-.695.308-.342.402-.028 1.085.094 1.288a1.915 1.915 0 0 0-.562-.097c-.394 0-.87.175-.912 1.016.044.872.59 1.001.912 1.001.17 0 .36-.03.562-.097-.122.203-.436.887-.094 1.288.169.2.415.308.695.308.486 0 1.043-.352 1.095-.877.02-.189.012-.563.005-.79h1.083v-1.653H9.878a7.758 7.758 0 0 0-.005-.818zm-1.008 2.41a.76.76 0 0 1-.772-.747.71.71 0 0 1 .08-.327c.014.288.26.518.56.518a.554.554 0 0 0 .563-.544.534.534 0 0 0-.111-.326.75.75 0 0 1 .451.679.76.76 0 0 1-.77.747zm1.008-9.475c-.052-.524-.609-.876-1.095-.876a.889.889 0 0 0-.695.309c-.342.4-.028 1.083.093 1.286a1.894 1.894 0 0 0-.56-.097c-.323 0-.87.129-.913 1.016.044.87.59 1.001.912 1.001.17 0 .36-.033.562-.096-.122.203-.436.886-.094 1.287a.891.891 0 0 0 .695.308c.486 0 1.043-.352 1.095-.876.02-.192.012-.563.005-.792h1.083V40.16H9.88a8.35 8.35 0 0 0-.006-.817zm-1.008 2.41a.76.76 0 0 1-.772-.747.72.72 0 0 1 .08-.329c.014.289.26.52.56.52a.553.553 0 0 0 .563-.546.53.53 0 0 0-.111-.323.741.741 0 0 1 .451.678.758.758 0 0 1-.77.746zm27.414 7.133c3.018.965 5.471.471 5.905.107V28.846c-2.441 1.226-5.7-.43-8.567-.692-2.313-.21-3.646.817-4.111 1.264v20.07c.838-.605 2.592-1.94 6.773-.602zm-3.994-19.04l.04-.009.038-.006a7.3 7.3 0 0 1 1.327-.052c.84.09 1.76.33 2.735.711.703.276 1.392.495 2.049.65l-.002.034a10.45 10.45 0 0 1-2.236-.375c-1.068-.315-2.055-.474-2.93-.474a6.21 6.21 0 0 0-1.009.077.498.498 0 0 1-.124.015c-.379 0-.47-.413-.47-.418a3.63 3.63 0 0 1 .582-.153zm0 2.05l.05-.009.033-.004a6.793 6.793 0 0 1 1.322-.052c.838.09 1.759.328 2.735.713a15.52 15.52 0 0 0 2.049.648l-.002.035c-.849-.063-1.6-.19-2.236-.377-1.067-.315-2.053-.474-2.93-.474a6.4 6.4 0 0 0-1.008.078.657.657 0 0 1-.125.014c-.379 0-.47-.414-.47-.418.154-.057.394-.12.582-.154zm0 2.053a.132.132 0 0 1 .05-.01l.034-.005a6.883 6.883 0 0 1 1.321-.05c.841.088 1.761.328 2.735.71.703.277 1.392.495 2.049.65l-.002.033c-.625-.044-1.381-.124-2.236-.376-1.068-.315-2.055-.474-2.93-.474-.347 0-.677.026-1.008.08a.667.667 0 0 1-.125.013c-.379 0-.47-.413-.47-.418a3.78 3.78 0 0 1 .582-.153zm0 2.051a6.242 6.242 0 0 1 1-.077 7.8 7.8 0 0 1 .405.012c.84.09 1.76.33 2.735.712a15.4 15.4 0 0 0 2.049.647l-.002.035a10.636 10.636 0 0 1-2.236-.376c-1.067-.314-2.053-.474-2.93-.474-.347 0-.677.025-1.008.077a.584.584 0 0 1-.125.015c-.379 0-.47-.414-.47-.418.154-.057.394-.12.582-.153zm0 2.053a6.39 6.39 0 0 1 1.405-.066c.838.087 1.759.327 2.735.71a15.18 15.18 0 0 0 2.049.65l-.002.034c-.38-.028-1.359-.118-2.236-.377-1.067-.314-2.053-.475-2.93-.475-.347 0-.676.028-1.007.08a.524.524 0 0 1-.126.015c-.379 0-.47-.413-.47-.417.154-.057.394-.122.582-.154zm0 2.052a6.192 6.192 0 0 1 1.405-.068c.838.09 1.759.33 2.735.713a15.47 15.47 0 0 0 2.049.649l-.002.032c-.841-.058-1.594-.185-2.236-.374-1.068-.315-2.055-.475-2.93-.475a6.27 6.27 0 0 0-1.004.077.523.523 0 0 1-.13.017c-.378 0-.468-.414-.47-.418.155-.058.395-.123.583-.153zm-.002 2.05a6.313 6.313 0 0 1 1.407-.065c.84.089 1.76.328 2.735.712.706.276 1.395.492 2.049.647l-.002.036c-.457-.031-1.355-.117-2.236-.376-1.068-.316-2.053-.476-2.93-.476a6.25 6.25 0 0 0-1.004.08.645.645 0 0 1-.13.013c-.378 0-.468-.413-.47-.417.155-.056.395-.12.581-.154zm0 2.054a6.134 6.134 0 0 1 1.407-.067c.84.088 1.76.328 2.735.71a15.14 15.14 0 0 0 2.049.65l-.002.033c-.845-.063-1.599-.188-2.236-.377-1.068-.314-2.055-.473-2.93-.473a6.35 6.35 0 0 0-1.004.078.582.582 0 0 1-.13.017c-.378 0-.468-.415-.47-.418a3.47 3.47 0 0 1 .581-.153zm-.11 2.62c-.379 0-.47-.412-.47-.417.154-.056.394-.12.58-.153a6.247 6.247 0 0 1 1.002-.078 8.2 8.2 0 0 1 .405.012c.838.088 1.759.327 2.735.711a15.41 15.41 0 0 0 2.049.648l-.002.035c-.375-.025-1.344-.113-2.236-.376-1.068-.314-2.055-.474-2.93-.474-.346 0-.673.025-1.002.078a.61.61 0 0 1-.131.014zm-22.3-14.551c-.052-.527-.609-.877-1.095-.877-.28 0-.526.11-.695.308-.342.4-.028 1.085.093 1.286a1.85 1.85 0 0 0-.56-.095c-.323 0-.87.129-.913 1.013.044.873.59 1.004.912 1.004.17 0 .36-.032.562-.097-.123.203-.436.886-.094 1.287a.894.894 0 0 0 .695.308c.485 0 1.043-.351 1.095-.876.02-.19.012-.563.005-.794h1.083v-1.651H9.88a8.405 8.405 0 0 0-.006-.816zm-1.008 2.409a.76.76 0 0 1-.772-.746.7.7 0 0 1 .08-.33c.014.29.26.519.56.519a.552.552 0 0 0 .563-.544.521.521 0 0 0-.111-.323.744.744 0 0 1 .451.678.758.758 0 0 1-.77.746z"/></g></svg>